<?xml version="1.0" standalone="no"?>
<!DOCTYPE svg PUBLIC "-//W3C//DTD SVG 20010904//EN"
 "http://www.w3.org/TR/2001/REC-SVG-20010904/DTD/svg10.dtd">
<svg version="1.0" xmlns="http://www.w3.org/2000/svg"
 width="915.000000pt" height="915.000000pt" viewBox="0 0 915.000000 915.000000"
 preserveAspectRatio="xMidYMid meet">

<g transform="translate(0.000000,915.000000) scale(0.100000,-0.100000)"
fill="#000000" stroke="none">
<path d="M5530 9030 c-124 -17 -259 -57 -387 -115 -64 -29 -109 -57 -258 -159
-38 -26 -195 -173 -195 -183 0 -11 -30 -33 -45 -33 -10 0 -81 15 -159 34 -206
49 -246 56 -406 67 -129 9 -233 8 -450 -7 -81 -5 -258 -33 -285 -44 -11 -5
-33 -11 -50 -14 -106 -17 -271 -73 -450 -151 -16 -7 -59 -26 -95 -41 -36 -16
-102 -50 -147 -76 -45 -27 -90 -51 -100 -55 -25 -9 -85 -48 -170 -110 -40 -29
-78 -53 -84 -53 -7 0 -34 14 -62 31 -66 40 -134 69 -237 101 -117 36 -192 48
-334 55 -102 4 -134 2 -204 -16 -259 -65 -431 -237 -476 -477 -17 -93 -9 -214
25 -369 21 -94 93 -288 136 -365 14 -25 41 -74 60 -110 20 -36 50 -83 66 -105
38 -49 107 -126 107 -119 0 3 17 -11 37 -31 l37 -36 -17 -92 c-24 -128 -28
-192 -34 -507 -4 -256 -3 -281 16 -363 20 -82 41 -140 62 -177 5 -8 13 -24 18
-36 5 -12 42 -70 82 -129 129 -192 371 -422 595 -565 90 -57 314 -170 338
-170 9 0 24 -4 34 -9 9 -5 63 -23 120 -41 66 -20 102 -35 99 -43 -2 -7 -11
-11 -21 -9 -9 2 -16 -1 -16 -5 0 -4 -32 -33 -72 -63 -148 -114 -288 -281 -367
-438 -46 -92 -100 -265 -117 -379 -20 -137 -12 -349 16 -435 46 -141 136 -263
240 -325 l37 -22 6 -141 c7 -145 23 -267 38 -285 4 -6 11 -29 15 -52 6 -40 6
-41 -88 -139 -110 -116 -151 -172 -218 -297 -73 -137 -114 -259 -170 -517 -11
-47 -23 -99 -29 -117 -5 -17 -7 -67 -4 -110 4 -64 1 -83 -14 -104 -90 -131
-153 -253 -153 -298 0 -10 -5 -22 -11 -28 -16 -16 -16 -150 1 -208 22 -79 72
-156 132 -200 67 -51 135 -90 170 -99 16 -3 28 -11 28 -16 0 -6 17 -10 38 -10
21 0 42 -4 47 -9 6 -5 51 -20 100 -32 75 -19 124 -23 302 -27 184 -3 229 -1
332 17 152 27 220 45 287 76 30 14 58 25 62 25 4 0 18 6 32 13 14 7 59 31 100
52 250 131 375 321 314 475 -12 28 -14 53 -9 87 4 27 8 104 9 173 2 69 8 154
15 190 15 77 68 239 86 260 7 8 15 26 19 40 3 14 26 52 51 85 39 51 49 59 73
57 17 -2 34 3 42 12 7 9 24 16 37 16 23 0 25 -3 20 -37 -3 -21 -13 -69 -22
-108 -32 -132 -10 -384 46 -534 l20 -54 -27 -81 c-14 -44 -29 -85 -34 -91 -24
-32 -18 -191 12 -285 15 -47 109 -153 164 -185 115 -67 411 -125 640 -125 318
1 521 43 749 158 61 30 124 65 140 77 17 12 42 28 57 36 15 8 77 70 137 138
82 91 116 137 131 177 11 30 20 60 20 67 0 7 12 50 25 97 27 89 73 307 85 400
7 55 7 423 -1 470 -2 13 1 25 6 25 51 3 175 62 295 140 47 30 99 61 116 69 74
33 246 157 329 235 91 87 326 384 366 464 12 23 42 74 66 112 24 39 64 102 89
140 24 39 52 81 61 95 83 117 394 360 461 360 63 0 174 84 209 158 14 29 15
43 5 88 -9 44 -62 147 -62 121 0 -4 -13 8 -30 26 -16 19 -51 42 -77 52 -27 10
-50 22 -54 26 -11 18 -182 21 -259 5 -110 -23 -195 -51 -228 -75 -17 -12 -33
-21 -37 -21 -14 0 -160 -115 -232 -183 -105 -99 -242 -275 -303 -387 -44 -83
-119 -207 -133 -221 -7 -8 -34 -45 -60 -84 -83 -121 -96 -137 -194 -243 -175
-189 -443 -338 -471 -263 -3 9 -9 18 -12 21 -4 3 -28 46 -55 95 -27 50 -63
114 -82 143 -18 29 -33 55 -33 59 0 3 -27 48 -60 99 -91 143 -129 222 -208
439 -25 68 -26 79 -30 359 -2 192 0 296 7 310 19 38 61 237 61 289 0 179 -56
319 -175 442 -67 68 -79 99 -46 110 33 10 196 108 243 144 75 61 202 194 243
256 21 33 54 79 73 101 76 92 215 370 271 542 70 215 96 384 95 622 0 140 -3
167 -31 280 -18 69 -38 141 -46 160 -8 19 -18 63 -22 98 l-7 63 65 60 c152
140 220 287 276 595 16 87 14 301 -4 376 -55 238 -145 447 -240 553 -151 172
-234 235 -374 287 -104 38 -109 39 -256 42 -82 2 -175 0 -205 -4z m371 -120
c75 -18 182 -66 229 -102 59 -46 209 -200 238 -245 17 -26 40 -73 52 -103 11
-30 25 -64 30 -75 5 -11 14 -38 19 -60 5 -22 17 -65 26 -95 21 -72 31 -318 17
-432 -11 -90 -46 -247 -62 -276 -4 -10 -20 -41 -35 -71 -51 -103 -171 -246
-197 -236 -7 3 -20 22 -29 43 -55 125 -83 175 -133 245 -56 79 -68 113 -42
123 19 7 77 97 103 159 35 81 56 209 50 289 -9 105 -56 238 -99 279 -47 46 15
53 103 12 69 -32 91 -32 87 -3 -4 29 -97 94 -162 113 -66 20 -249 20 -305 0
-22 -7 -85 -35 -138 -61 -114 -54 -189 -123 -240 -221 -45 -83 -43 -102 15
-155 128 -117 287 -289 370 -399 81 -108 119 -161 147 -205 17 -26 37 -58 45
-70 20 -31 6 -40 -32 -21 -64 31 -138 47 -218 47 -83 0 -121 -14 -157 -58 -38
-47 8 -109 165 -219 106 -75 370 -216 447 -239 22 -7 31 -18 38 -44 26 -104
49 -334 45 -440 -4 -88 -21 -103 -52 -45 -46 86 -271 279 -376 324 -14 6 -32
15 -40 20 -30 19 -166 69 -205 76 -22 4 -53 14 -69 22 -20 10 -74 16 -179 19
-82 2 -152 6 -154 8 -2 2 5 31 17 65 15 46 20 86 20 168 -1 215 -58 367 -194
511 -67 71 -123 108 -220 144 -205 77 -429 31 -597 -122 -79 -71 -122 -134
-175 -255 l-39 -90 0 -170 c0 -163 1 -173 29 -245 16 -41 38 -90 49 -108 23
-39 18 -46 -43 -66 -25 -8 -76 -26 -115 -41 -38 -15 -79 -29 -90 -32 -11 -3
-32 -14 -47 -25 -14 -10 -33 -18 -40 -18 -8 0 -23 -9 -33 -20 -32 -36 -50 -26
-45 27 2 34 -37 101 -91 155 -144 144 -510 201 -819 128 -116 -27 -204 -55
-271 -86 -42 -20 -84 -34 -94 -32 -11 2 -23 19 -30 43 -51 161 -194 285 -355
309 -64 9 -182 -10 -239 -38 -71 -36 -151 -115 -188 -184 -49 -90 -63 -158
-63 -299 0 -121 1 -124 36 -196 20 -41 47 -87 60 -102 13 -15 24 -33 24 -40 0
-6 -25 -29 -56 -50 -30 -21 -71 -58 -91 -82 -19 -24 -40 -43 -47 -43 -18 0
-18 224 -1 400 19 190 44 313 95 455 10 28 25 75 35 105 9 30 25 73 35 95 10
22 29 67 42 100 32 77 58 93 134 76 29 -7 58 -19 64 -27 7 -7 16 -14 21 -14 5
0 29 -13 55 -30 56 -35 116 -46 174 -30 53 14 110 58 110 85 0 57 -65 89 -121
60 -25 -13 -37 -15 -55 -6 -13 6 -24 15 -24 21 0 6 -25 22 -55 36 -58 27 -101
26 -157 -2 -15 -8 -37 -14 -49 -14 -24 0 -21 16 12 59 11 14 48 69 81 121 34
52 81 122 107 155 61 81 226 245 245 245 9 0 24 -16 33 -37 10 -20 30 -45 45
-56 25 -19 33 -20 118 -9 95 12 140 5 140 -21 0 -17 -25 -40 -70 -62 -103 -51
-164 -111 -191 -187 -16 -46 -1 -103 35 -138 35 -32 111 -31 188 3 76 35 112
38 116 12 2 -17 -15 -29 -90 -68 -74 -37 -100 -57 -128 -95 -19 -26 -41 -51
-47 -55 -31 -19 8 -132 56 -164 46 -31 84 -29 204 11 129 42 187 59 212 61 68
5 282 40 348 56 159 39 206 110 156 239 -11 29 -48 51 -127 76 -48 15 -62 15
-124 4 -73 -14 -103 -8 -103 21 0 17 92 68 123 69 13 0 31 4 41 9 9 5 66 14
125 20 125 11 187 37 224 91 47 70 18 173 -66 230 -33 23 -44 25 -136 23 -56
-2 -119 -4 -141 -5 -37 -3 -40 -1 -40 22 0 37 86 75 226 101 236 43 327 83
386 171 63 93 69 142 29 215 -14 25 -26 51 -26 58 0 18 79 25 265 24 288 -1
445 -35 687 -149 73 -34 91 -24 73 41 -6 23 3 36 72 106 228 231 503 372 793
407 64 7 214 -5 291 -24z m64 -552 c67 -58 125 -208 125 -323 0 -98 -37 -226
-93 -318 l-33 -56 -70 80 c-97 113 -231 231 -356 317 -27 18 -48 39 -48 46 0
26 92 136 149 180 65 50 113 73 191 91 83 19 96 18 135 -17z m-4252 -213 c62
-4 223 -41 242 -55 6 -4 23 -10 39 -14 39 -9 156 -67 156 -77 0 -4 -46 -54
-101 -111 -56 -57 -126 -136 -156 -175 -51 -68 -82 -89 -97 -65 -8 14 -137 59
-206 72 -117 22 -205 24 -252 7 -24 -8 -61 -18 -83 -22 -45 -8 -65 -21 -65
-42 0 -12 10 -13 54 -8 67 9 82 2 61 -28 -10 -15 -15 -47 -15 -105 0 -103 27
-201 81 -292 41 -69 110 -150 127 -150 19 0 31 -33 21 -53 -15 -26 -56 -156
-64 -199 -11 -56 -35 -49 -114 30 -50 50 -86 101 -143 202 -130 231 -185 438
-173 653 13 213 57 292 213 381 30 18 153 49 217 55 67 7 123 6 258 -4z m-165
-494 c57 -9 177 -49 210 -69 9 -6 1 -26 -33 -78 -37 -54 -149 -267 -179 -337
-3 -7 -23 7 -51 38 -114 125 -182 366 -123 440 23 30 27 30 176 6z m3187 -26
c101 -26 165 -63 240 -139 99 -100 166 -251 164 -366 l-1 -35 -12 45 c-43 152
-156 267 -301 305 -74 19 -128 19 -192 0 -44 -13 -102 -55 -76 -55 6 0 22 -12
36 -26 53 -52 45 -169 -14 -218 -39 -33 -69 -33 -108 -1 -38 32 -55 83 -49
147 l5 49 -24 -23 c-61 -57 -113 -190 -113 -288 0 -75 31 -175 74 -239 39 -58
45 -51 -62 -69 -52 -9 -53 -9 -82 26 -16 19 -42 63 -59 97 -110 222 -69 478
104 650 132 132 302 183 470 140z m187 -632 c22 -20 23 -41 1 -65 -20 -22 -51
-23 -75 -1 -22 20 -23 41 -1 65 20 22 51 23 75 1z m-2871 -52 c36 -10 83 -30
105 -44 66 -42 135 -127 157 -192 6 -20 6 -20 -6 -1 -29 48 -100 114 -144 136
-41 21 -62 24 -143 24 -83 0 -102 -3 -152 -27 -57 -27 -57 -28 -38 -47 43 -43
31 -161 -17 -168 -27 -4 -53 41 -53 94 l0 37 -19 -24 c-10 -13 -29 -52 -41
-87 -20 -55 -22 -75 -17 -161 5 -105 16 -136 71 -205 18 -24 23 -36 13 -30
-28 16 -95 122 -113 178 -9 28 -20 89 -24 136 -6 69 -4 95 11 142 20 65 59
130 97 164 50 44 158 88 232 93 8 1 45 -7 81 -18z m3383 -212 c156 -19 361
-97 490 -187 158 -109 326 -300 326 -369 -1 -80 -96 -360 -176 -518 -148 -293
-333 -478 -674 -675 -41 -24 -83 -50 -93 -59 -16 -13 -26 -13 -90 2 -128 28
-233 31 -328 8 -111 -26 -209 -72 -232 -108 -11 -18 -30 -16 -75 7 -105 55
-351 67 -510 26 -99 -26 -241 -91 -338 -155 -153 -101 -272 -273 -292 -420 -5
-34 -13 -66 -18 -71 -5 -5 -25 -5 -49 0 -107 25 -352 -1 -418 -45 -13 -8 -26
-13 -29 -9 -11 10 75 164 128 228 83 101 94 105 262 104 152 0 172 5 172 47 0
31 -20 35 -190 35 -292 0 -630 59 -855 150 -187 74 -422 222 -559 350 -62 59
-197 216 -253 297 -32 44 -119 219 -137 273 -13 40 -26 102 -43 211 -7 47 23
105 91 177 90 96 173 134 332 153 97 12 213 1 259 -24 12 -6 44 -41 71 -77 73
-96 147 -151 291 -217 102 -46 191 -65 297 -62 75 3 90 0 102 -15 20 -28 8
-40 -54 -61 -70 -24 -122 -45 -232 -97 -47 -22 -103 -47 -125 -55 -22 -8 -49
-19 -60 -23 -11 -5 -56 -18 -100 -30 -44 -12 -96 -25 -115 -30 -51 -14 -137
-12 -198 4 -136 36 -312 151 -272 176 8 5 23 10 33 10 9 0 17 5 17 10 0 13
-41 13 -73 1 -29 -11 -83 -78 -73 -89 4 -4 14 2 21 12 14 18 17 16 59 -31 43
-47 155 -117 209 -129 36 -9 89 -22 137 -34 104 -26 311 28 555 146 50 24 108
50 130 58 22 8 85 30 140 50 55 19 161 47 235 62 129 25 145 26 345 20 116 -3
233 -10 260 -16 117 -21 483 -34 656 -22 210 15 277 30 409 93 266 128 316
163 421 296 28 35 56 63 62 63 7 0 26 -13 42 -29 55 -51 105 -67 105 -33 0 28
-27 59 -83 96 -62 42 -207 84 -207 60 0 -18 24 -43 50 -52 16 -6 30 -17 30
-24 0 -19 -135 -146 -201 -190 -52 -34 -133 -77 -194 -103 -16 -7 -59 -26 -95
-43 -68 -31 -116 -44 -241 -63 -100 -15 -511 -6 -694 16 -221 26 -469 30 -600
10 -60 -9 -134 -23 -163 -31 -50 -15 -55 -15 -73 2 -10 9 -19 21 -19 25 0 5
50 33 111 64 62 31 164 95 228 142 109 81 331 291 331 313 0 23 53 88 83 103
18 8 59 28 92 45 204 100 554 177 1080 236 223 26 437 31 569 15z m-2402 -37
c20 -20 -4 -33 -68 -39 -63 -5 -125 6 -131 24 -10 28 173 41 199 15z m-978
-138 c19 -18 19 -20 6 -45 -12 -21 -50 -25 -68 -7 -17 17 -15 45 6 57 24 15
38 13 56 -5z m3048 -1695 c131 -27 231 -76 309 -150 98 -95 160 -265 142 -386
-9 -59 -11 -59 -65 8 -42 52 -181 149 -243 169 -22 7 -45 16 -51 21 -19 15
-147 38 -248 43 -101 6 -116 10 -116 28 0 13 -64 102 -104 145 -29 32 -29 33
-10 48 84 68 257 101 386 74z m-707 -74 c139 -26 289 -118 343 -209 l20 -34
-41 28 c-23 15 -71 40 -107 56 -57 25 -78 28 -170 28 l-105 1 0 -30 c0 -27 3
-30 30 -31 149 -3 369 -121 410 -222 20 -45 19 -111 -2 -195 l-16 -69 -17 54
c-28 88 -75 170 -132 229 -94 98 -211 141 -388 143 -126 1 -200 -20 -242 -68
-46 -52 -29 -87 25 -52 41 26 168 41 239 28 226 -42 354 -158 401 -363 26
-117 -8 -170 -131 -208 -87 -26 -103 -26 -188 0 -126 39 -182 81 -278 210 -37
51 -65 78 -81 81 -14 3 -27 3 -30 0 -8 -9 -6 -59 5 -86 10 -27 2 -34 -16 -16
-17 17 -333 129 -364 130 -43 1 -41 16 15 125 97 189 223 316 395 400 169 81
275 99 425 70z m-1360 -306 c3 -4 -8 -19 -26 -33 -29 -25 -119 -138 -140 -178
-12 -23 -24 -23 -57 1 -27 19 -61 28 -140 38 -24 3 -42 9 -40 13 5 11 150 125
202 157 45 28 47 28 120 18 41 -5 77 -13 81 -16z m2042 -343 c139 -37 275
-132 338 -238 19 -33 35 -65 35 -71 0 -26 -82 -232 -137 -342 -38 -78 -133
-225 -145 -225 -5 0 -8 13 -8 30 0 33 -18 106 -50 200 -51 152 -167 333 -270
423 -40 35 -42 38 -26 55 9 10 16 21 16 25 0 3 11 23 25 43 14 20 30 54 35 75
6 21 18 42 26 47 17 10 70 3 161 -22z m-1617 -57 c112 -24 206 -48 238 -60 25
-10 29 -27 8 -35 -26 -10 -114 -129 -153 -209 -93 -186 -137 -476 -91 -598 14
-36 4 -45 -23 -21 -11 10 -36 27 -54 39 -137 82 -183 123 -220 196 -22 41 -30
72 -55 199 -24 121 1 301 58 423 20 43 44 83 52 88 21 12 126 2 240 -22z
m-678 -201 c-25 -68 -26 -84 -27 -243 0 -179 8 -227 45 -260 30 -27 24 -35
-25 -35 -36 0 -48 5 -60 23 -24 37 -45 118 -45 174 0 56 22 173 41 219 30 72
89 194 93 194 3 0 -7 -33 -22 -72z m5194 61 c63 -16 55 -29 -18 -29 -86 -1
-230 -34 -306 -71 -78 -38 -113 -36 -55 4 53 37 129 65 233 87 105 23 93 22
146 9z m-5340 -34 c3 -8 -3 -27 -13 -42 -66 -96 -105 -267 -85 -368 l12 -57
-49 -54 c-63 -69 -108 -149 -125 -225 -8 -34 -17 -63 -19 -65 -7 -7 -73 107
-102 176 -25 59 -27 75 -27 195 0 71 5 153 11 180 28 142 53 200 91 220 93 47
293 74 306 40z m1441 -44 c81 -73 168 -108 290 -118 l81 -6 25 -51 c42 -88 57
-124 57 -139 0 -9 4 -18 9 -22 5 -3 13 -20 16 -38 4 -17 13 -45 20 -62 31 -74
58 -243 63 -390 4 -141 3 -151 -16 -168 -43 -39 -241 -73 -360 -61 -80 7 -72
0 -145 114 -21 33 -81 202 -102 285 -46 187 -58 440 -28 615 9 55 18 100 20
100 3 0 34 -27 70 -59z m1399 -329 c2 -207 49 -396 124 -509 16 -23 26 -44 22
-47 -3 -3 -28 -6 -56 -6 -132 0 -380 -77 -485 -150 -14 -10 -54 -36 -88 -58
-61 -40 -63 -40 -67 -19 -14 71 -23 143 -20 152 3 6 28 26 56 45 104 70 277
260 357 391 12 19 49 91 84 161 34 70 64 127 67 128 3 0 5 -39 6 -88z m1943
56 c76 -45 128 -113 155 -203 l14 -44 -87 -88 c-48 -48 -100 -106 -114 -128
-15 -22 -39 -58 -54 -80 l-26 -39 -16 24 c-53 81 -141 143 -222 156 -21 4 -39
11 -39 17 0 42 303 407 337 407 9 0 32 -10 52 -22z m-4333 -344 c104 -48 194
-102 194 -116 0 -14 -128 -103 -197 -137 -62 -31 -167 -70 -189 -71 -34 -1
-55 165 -34 274 21 113 69 123 226 50z m292 -173 c110 -77 274 -168 427 -236
33 -15 69 -31 80 -36 41 -18 112 -41 190 -60 63 -17 110 -21 222 -20 206 1
348 33 473 107 69 41 75 35 85 -79 14 -177 -40 -347 -160 -502 -85 -109 -155
-176 -251 -240 -79 -53 -233 -135 -253 -135 -6 0 -25 -6 -43 -14 -224 -97
-627 -106 -901 -22 -176 55 -349 152 -482 270 -143 129 -244 353 -265 591 -10
113 -5 132 30 119 43 -16 118 -26 159 -21 255 28 368 68 536 190 39 28 81 63
95 79 13 15 26 28 28 28 1 0 15 -9 30 -19z m3520 -366 c21 -24 53 -71 70 -104
l32 -59 -44 -58 c-49 -65 -113 -130 -163 -166 -18 -13 -64 -47 -102 -75 -81
-60 -78 -62 -105 47 -19 72 -64 151 -110 193 l-30 27 54 47 c30 27 80 74 110
106 30 33 76 81 102 109 l46 49 51 -36 c28 -20 68 -56 89 -80z m-995 -177 c17
-29 47 -89 65 -133 35 -83 86 -254 79 -261 -7 -7 -283 15 -400 32 -115 16
-244 15 -507 -7 -128 -11 -163 -19 -305 -70 -85 -30 -250 -116 -314 -162 -140
-103 -267 -223 -298 -280 -22 -43 -26 -26 -13 51 13 78 20 87 100 128 118 60
297 198 380 295 116 133 134 149 220 198 50 28 92 51 95 51 2 0 37 15 77 34
131 60 276 112 408 147 42 11 191 23 323 27 l57 2 33 -52z m-3215 -445 c41
-40 71 -73 68 -73 -3 0 -23 6 -43 14 -53 20 -177 45 -243 50 -38 2 -54 7 -52
16 3 12 55 78 101 128 l24 26 36 -44 c20 -25 69 -78 109 -117z m3122 -219 c85
-9 187 -13 226 -10 l71 6 13 -61 c27 -126 -9 -560 -59 -723 -12 -37 -21 -81
-21 -97 0 -33 -26 -41 -37 -11 -17 46 -122 146 -225 216 -43 28 -155 86 -188
97 -14 4 -63 22 -109 38 -119 44 -192 59 -351 73 -154 13 -365 1 -471 -27
-131 -35 -294 -114 -367 -179 -20 -17 -24 -18 -32 -6 -13 21 -42 137 -47 192
-4 40 -2 49 14 55 10 4 41 21 68 37 167 102 352 188 530 246 55 18 120 40 145
50 165 64 375 103 610 113 36 2 67 4 70 5 3 1 75 -5 160 -14z m-3065 -143 c61
-11 164 -33 230 -50 66 -16 140 -33 165 -36 25 -4 61 -16 80 -26 19 -11 44
-19 56 -19 11 0 47 -9 80 -21 32 -11 93 -31 134 -43 77 -23 174 -68 185 -86 3
-5 1 -27 -4 -47 -32 -118 -43 -185 -44 -274 l-2 -99 -95 93 c-143 141 -212
178 -440 242 -74 21 -444 32 -557 17 -107 -15 -280 -73 -366 -124 -38 -22 -71
-37 -74 -34 -14 14 38 254 82 380 39 110 62 143 109 149 73 11 355 -2 461 -22z
m1085 -33 c-1 -7 -16 -30 -35 -51 -32 -37 -34 -38 -62 -24 -15 8 -45 29 -66
46 l-39 30 94 4 c51 1 96 4 101 5 4 1 7 -4 7 -10z m-840 -418 c107 -23 137
-34 269 -97 174 -84 323 -243 374 -400 16 -50 16 -54 -3 -105 -24 -62 -39 -82
-100 -130 -52 -42 -201 -119 -286 -149 -135 -46 -442 -92 -508 -75 -59 15
-101 186 -85 338 10 88 71 233 102 241 10 3 17 15 17 31 0 32 -27 35 -58 6
-12 -11 -25 -20 -30 -20 -25 0 -81 -102 -108 -195 -27 -90 -24 -272 4 -344
l21 -54 -79 6 c-122 10 -269 41 -368 78 -29 11 -59 62 -73 124 -9 43 -8 63 11
139 22 93 36 122 81 171 15 17 31 43 35 59 7 29 6 29 -27 23 -53 -10 -132
-100 -158 -179 -25 -78 -45 -191 -38 -223 2 -14 3 -25 0 -25 -2 0 -21 28 -43
62 -45 69 -48 94 -26 210 38 200 175 360 377 442 35 15 71 31 81 36 16 9 166
45 223 54 70 10 303 -3 395 -24z m2184 0 c173 -25 297 -62 456 -138 74 -35
198 -123 242 -172 25 -27 52 -50 61 -50 17 0 77 -71 77 -92 0 -7 -18 -41 -41
-75 -88 -136 -254 -237 -504 -307 -147 -42 -251 -58 -278 -44 -35 18 -74 121
-87 230 -10 82 -10 122 0 202 7 56 17 110 23 121 13 22 37 108 32 113 -1 2
-20 -5 -40 -15 -43 -21 -63 -63 -90 -183 -29 -128 -10 -406 30 -450 37 -40 24
-43 -162 -37 -202 7 -297 20 -333 45 -37 27 -81 121 -87 189 -8 88 33 292 70
343 21 30 22 60 3 60 -23 0 -91 -72 -109 -115 -36 -88 -52 -179 -52 -295 0
-94 3 -121 18 -143 22 -34 13 -34 -49 -1 -65 34 -120 88 -151 149 -24 47 -25
53 -14 115 16 87 92 254 141 312 50 57 182 146 275 183 187 75 331 89 569 55z"/>
<path d="M4315 8081 c-33 -10 -75 -26 -93 -35 -42 -22 -137 -119 -193 -198
-61 -86 -72 -95 -121 -108 -24 -7 -51 -16 -60 -21 -10 -5 -24 -9 -33 -9 -34 0
-64 -94 -40 -126 11 -16 27 -19 97 -19 75 0 88 3 133 31 48 30 128 125 198
238 77 123 167 193 279 216 l63 13 -35 14 c-55 23 -128 25 -195 4z"/>
<path d="M4736 4321 c-4 -5 -2 -12 3 -15 5 -4 12 -2 15 3 4 5 2 12 -3 15 -5 4
-12 2 -15 -3z"/>
<path d="M4454 4026 c-10 -26 4 -48 28 -44 17 2 23 10 23 28 0 18 -6 26 -23
28 -13 2 -25 -3 -28 -12z"/>
<path d="M3424 2175 c-19 -15 -19 -15 0 -30 11 -8 32 -15 46 -15 14 0 35 7 46
15 19 15 19 15 0 30 -11 8 -32 15 -46 15 -14 0 -35 -7 -46 -15z"/>
<path d="M1935 660 c-4 -6 -3 -16 3 -22 6 -6 12 -6 17 2 4 6 3 16 -3 22 -6 6
-12 6 -17 -2z"/>
<path d="M2252 508 c-18 -18 5 -38 43 -38 38 0 61 20 43 38 -7 7 -26 12 -43
12 -17 0 -36 -5 -43 -12z"/>
<path d="M2921 510 c-37 -16 -11 -33 56 -38 67 -4 123 12 105 30 -16 16 -130
21 -161 8z"/>
<path d="M4254 665 c-4 -9 -2 -21 4 -27 15 -15 44 -1 40 19 -4 23 -36 29 -44
8z"/>
<path d="M5386 639 c-34 -27 -25 -39 28 -39 44 0 102 32 91 51 -12 18 -91 10
-119 -12z"/>
<path d="M4691 550 c-36 -16 -13 -32 51 -38 62 -4 118 12 100 30 -15 15 -121
21 -151 8z"/>
</g>
</svg>
